PathFileType	4	(X/Y/Z)	 s02c0102.trc
DataRate	CameraRate	NumFrames	NumMarkers	Units	OrigDataRate	OrigDataStartFrame	OrigNumFrames
200	200	5	51	mm	200	501	2000
Frame#	Time	racr			lacr			c7			jug			rlel			rdr			llel			ldr			s2			lic			ric			lasi			rasi			rpsi			lpsi			rgt			lgt			rth1			rth2			rth3			rth4			rlfc			rmfc			rsh1			rsh2			rsh3			rsh4			rlmal			rmmal			rcal			rtoe			rmt5			rmt1			lth1			lth2			lth4			lth3			llfc			lmfc			lsh1			lsh2			lsh3			lsh4			llmal			lmmal			lcal			ltoe			lmt5			SBIKE			LBIKE			RBIKE			
		X1	Y1	Z1	X2	Y2	Z2	X3	Y3	Z3	X4	Y4	Z4	X5	Y5	Z5	X6	Y6	Z6	X7	Y7	Z7	X8	Y8	Z8	X9	Y9	Z9	X10	Y10	Z10	X11	Y11	Z11	X12	Y12	Z12	X13	Y13	Z13	X14	Y14	Z14	X15	Y15	Z15	X16	Y16	Z16	X17	Y17	Z17	X18	Y18	Z18	X19	Y19	Z19	X20	Y20	Z20	X21	Y21	Z21	X22	Y22	Z22	X23	Y23	Z23	X24	Y24	Z24	X25	Y25	Z25	X26	Y26	Z26	X27	Y27	Z27	X28	Y28	Z28	X29	Y29	Z29	X30	Y30	Z30	X31	Y31	Z31	X32	Y32	Z32	X33	Y33	Z33	X34	Y34	Z34	X35	Y35	Z35	X36	Y36	Z36	X37	Y37	Z37	X38	Y38	Z38	X39	Y39	Z39	X40	Y40	Z40	X41	Y41	Z41	X42	Y42	Z42	X43	Y43	Z43	X44	Y44	Z44	X45	Y45	Z45	X46	Y46	Z46	X47	Y47	Z47	X48	Y48	Z48	X49	Y49	Z49	X50	Y50	Z50	X51	Y51	Z51	
501	2.5050	557.625537	1254.931127	-150.205604	541.557435	1259.862282	-483.449195	542.474098	1290.666756	-325.303590	468.951281	1168.782538	-312.555126	581.587952	998.269283	-58.934360	729.718441	847.816333	-118.053963	511.180746	982.279568	-558.252061	706.867127	866.732045	-506.100722	14.062903	1131.431333	-326.870316	164.106125	1119.581531	-460.004214	127.228440	1146.240801	-178.119686	206.324863	1091.333982	-428.305012	175.750290	1107.993736	-196.348203	38.162232	1187.664865	-284.309021	55.557978	1190.013826	-365.001162	102.261191	1069.267257	-128.397098	111.833196	1031.402962	-485.951352	190.065717	1036.873694	-128.009103	277.899222	1023.905352	-125.863146	345.985633	978.992403	-98.017798	291.167933	1046.171520	-154.000371	452.882486	877.188019	-123.451829	444.869672	859.803737	-236.148803	394.139619	780.081582	-115.967357	340.775724	712.769530	-140.087469	264.088630	673.999576	-138.146806	352.144416	705.926479	-177.591654	167.178857	605.715077	-148.319283	184.895325	621.024181	-229.471554	81.029483	602.704242	-193.429412	315.733479	435.785337	-184.530705	215.361367	484.368028	-131.376229	246.618702	477.425583	-236.987127	207.462890	927.550174	-504.757884	266.230286	863.324218	-498.942527	295.344005	879.071438	-482.845662	284.122378	776.052179	-499.076523	328.726277	689.492124	-479.573966	329.449793	656.165854	-382.054449	326.602551	585.990942	-507.434671	349.712354	503.543796	-495.020599	327.482140	415.483567	-500.194967	366.023806	505.294467	-457.404816	319.226983	309.671356	-491.705767	328.584625	305.187180	-412.050592	247.425237	284.944028	-458.475727	508.228992	159.569652	-429.444576	409.643603	180.652591	-502.334231	-162.289809	860.336640	-310.247823	37.485201	86.268452	-514.255697	34.060709	83.113567	-114.145298	
502	2.5100	557.465999	1255.197305	-149.577464	542.714088	1259.292536	-482.858743	542.860326	1290.636940	-324.567069	469.445358	1168.634636	-311.869519	581.275070	998.246765	-58.889867	729.696425	848.140846	-117.906988	512.461201	982.393446	-559.318731	707.422879	866.084854	-505.963879	14.213439	1131.757213	-327.774849	164.634861	1118.674243	-460.540270	126.990483	1146.791512	-178.816527	206.731332	1091.036257	-428.713696	175.402857	1108.482957	-197.069596	38.357818	1188.087589	-285.430588	55.634975	1190.381763	-365.995755	102.053567	1070.519857	-128.961543	111.742311	1030.808517	-486.291590	189.963145	1038.842175	-128.097272	277.828270	1026.704228	-126.451738	346.533939	982.472756	-98.673079	290.792654	1048.964314	-154.428518	454.351528	881.812539	-123.653767	446.675203	864.141527	-236.742641	396.304525	784.336232	-116.287239	343.208309	716.833949	-140.453207	266.802652	677.388311	-138.479466	354.770801	709.895015	-177.826237	170.450038	608.573159	-148.614366	188.645937	623.622324	-229.121782	84.397000	604.699103	-193.564408	320.021103	440.100273	-185.186298	219.993829	487.988509	-131.443884	251.390708	481.268361	-237.008785	206.495140	926.220461	-505.177840	264.717805	861.398610	-499.329900	293.932263	876.945818	-483.101854	281.701177	774.023843	-499.197219	325.547303	687.147463	-479.650327	325.954944	653.692454	-382.195338	323.093817	583.841316	-507.572428	346.363734	501.351461	-495.170341	324.217573	413.339533	-500.496592	362.624316	503.198501	-457.628786	316.323389	307.565538	-491.921010	325.837925	302.929189	-412.282912	244.510390	284.029220	-458.368423	503.240085	154.492286	-429.411854	404.953759	177.049605	-502.325004	-162.259786	860.297331	-310.377187	37.486160	86.275254	-514.273916	34.067513	83.107743	-114.141468	
503	2.5150	557.224576	1255.420128	-148.858966	543.899840	1258.732083	-481.892420	543.116071	1290.557640	-323.892527	470.155197	1168.226464	-311.274741	580.923063	998.182569	-58.835834	729.705580	848.437325	-117.609136	513.839326	982.449463	-560.448500	708.025554	865.365885	-505.871752	14.394266	1131.936869	-328.400410	164.995257	1118.986509	-460.939080	126.666598	1147.287149	-179.660168	206.990344	1090.716377	-429.054240	175.245455	1108.697329	-197.520320	38.532400	1188.416164	-286.557548	55.747593	1190.612120	-366.995343	101.797998	1071.780093	-129.582225	111.657412	1030.282238	-486.504945	189.840345	1040.763222	-128.237054	277.790529	1029.384677	-127.106643	347.029001	985.938049	-99.414614	290.344161	1051.582647	-155.258409	455.760123	886.534691	-123.712748	448.218364	868.407820	-237.446267	398.555479	788.656966	-116.597283	345.793662	720.507590	-140.829684	269.598671	680.831639	-138.816652	357.389168	713.541414	-178.158406	173.866120	611.263911	-148.889044	191.845039	626.482499	-229.394752	87.860504	606.441845	-193.569058	325.325092	444.591048	-185.289037	224.817723	491.482817	-131.449529	256.228984	485.122780	-237.117028	205.602269	924.922550	-505.575681	263.314690	859.635750	-499.789865	292.631376	874.911633	-483.329854	279.433047	772.026357	-499.300785	322.522663	685.074854	-479.766207	322.668245	651.512402	-382.146044	319.810687	581.863299	-507.725351	343.073492	499.400233	-495.406069	320.964467	411.345923	-500.662464	359.393472	501.156276	-457.806525	313.392217	305.601253	-492.067050	322.758795	300.898559	-412.498272	241.461327	283.307633	-458.371705	498.067232	149.574398	-429.270946	400.184284	173.860392	-502.305659	-162.346011	860.350548	-310.210473	37.473609	86.317820	-514.259048	34.060096	83.123080	-114.132241	
504	2.5200	556.915602	1255.576106	-148.158761	544.980664	1258.220831	-481.026814	543.310294	1290.451560	-323.120344	470.746917	1167.824100	-310.608195	580.525053	998.087170	-58.805810	729.691746	848.846142	-117.364314	515.344284	982.624311	-561.662554	708.676883	864.629313	-505.758886	14.441070	1132.098022	-329.293483	165.283200	1118.765817	-461.341724	126.378541	1147.730756	-180.330532	207.180948	1090.259205	-429.347598	175.048790	1108.962975	-197.948307	38.609785	1188.703951	-287.674737	55.770194	1190.727536	-367.906083	101.516117	1072.749357	-130.218316	111.523343	1029.703596	-486.790833	189.647256	1042.619215	-128.488307	277.719089	1032.082251	-127.791887	347.392011	989.266181	-100.321581	289.973577	1054.141444	-156.219482	457.362803	890.975698	-124.677335	449.751007	872.578546	-238.029624	400.708135	792.654040	-117.061155	348.261667	724.257383	-141.375077	272.479754	683.950756	-139.142247	360.440287	717.313461	-178.086379	177.370560	613.628746	-149.156481	195.711937	629.790291	-229.632874	91.425199	608.056380	-193.449814	330.700440	449.031369	-185.401680	229.673943	494.823077	-131.541853	261.095886	488.663123	-237.191462	204.905364	923.633166	-505.630786	262.008499	857.935526	-500.181400	291.340320	872.958733	-483.517226	277.327578	770.153706	-499.435098	319.819160	682.947640	-479.851699	319.721236	649.463970	-382.128466	316.757951	579.881778	-507.807252	339.990325	497.424394	-495.513156	317.744906	409.447696	-500.769730	356.303284	499.265029	-457.951261	310.269027	303.808780	-492.201742	319.692252	298.911176	-412.630756	238.233468	282.656009	-458.338338	492.723363	144.990261	-429.206842	395.218185	170.683047	-502.280249	-162.349587	860.360987	-310.095422	37.466829	86.328653	-514.231492	34.054335	83.120228	-114.143516	
505	2.5250	556.514037	1255.643319	-147.475681	545.969299	1257.627584	-480.248346	543.473291	1290.289805	-322.188951	471.089125	1167.493576	-309.803567	580.018059	997.920672	-58.711159	729.653984	849.372962	-117.134585	516.928350	982.788463	-562.918859	709.407322	864.109247	-505.830951	14.423528	1132.100715	-330.172760	165.588399	1118.401236	-461.615854	125.950581	1148.021471	-181.101424	207.408881	1089.826439	-429.700129	174.986039	1109.189052	-198.008988	38.636391	1188.956405	-288.712014	56.135535	1190.636857	-368.898449	101.221766	1073.680360	-130.838480	111.406351	1029.109122	-487.073507	189.444648	1044.441573	-128.799011	277.597076	1034.693521	-128.570865	347.586574	992.519100	-101.405596	289.381952	1056.434730	-157.596437	458.428234	895.122417	-124.845969	451.169208	876.597702	-238.834991	402.917059	796.369549	-117.576963	350.910607	727.571511	-141.818148	275.414430	686.821273	-139.466940	363.339049	720.921115	-178.238944	181.016621	615.676405	-149.251403	198.698713	631.963066	-229.896340	94.806707	609.425264	-193.902719	336.210547	453.235063	-185.492635	234.577639	497.892930	-131.566665	265.947505	491.953427	-237.245265	204.095958	922.413560	-505.969364	260.775503	856.291021	-500.511392	290.118072	871.113822	-483.615343	275.154059	768.433871	-500.181965	317.527505	680.933759	-479.938211	317.112461	647.441684	-382.071370	313.989866	578.198432	-507.944076	336.989805	495.747227	-495.650025	314.583748	407.673543	-500.873765	353.357902	497.388594	-458.066677	306.960289	302.161185	-492.331453	316.473019	297.161949	-412.692404	234.785180	282.094686	-458.222414	486.966432	140.109916	-428.597290	390.141766	167.841876	-502.270174	-162.430375	860.209519	-310.435727	37.477842	86.328141	-514.248995	34.059181	83.122365	-114.128463	
